# xmcd
#
# Track frame offsets:
#	150
#	14767
#	33920
#	48852
#	66950
#	82680
#	105767
#	126647
#	144674
#	158983
#	181729
#	201085
#	218661
#	224739
#
# Disc length: 3224 seconds
#
# Revision: 0
# Processed by: cddbd v1.5.2PL0 Copyright (c) Steve Scherf et al.
# Submitted via: audiograbber 1.83.01
#
DISCID=c50c960e
DTITLE=Chartbuster Karaoke - Essential 4 Disk 28
DYEAR=1900
DGENRE=Karaoke
TTITLE0=Tracy Byrd - The Truth About Men
TTITLE1=Darryl Worley - Have You Forgotten?
TTITLE2=Rachel Proctor - Days Like This
TTITLE3=Clay Walker - A Few Questions
TTITLE4=Clint Black - I Raq and Roll
TTITLE5=Jessica Andrews - Now
TTITLE6=Dierks Bentley - What Was I Thinkin'
TTITLE7=Tamara Walker - Circle Of Love
TTITLE8=Marty Stuart - If There Ain't There Oughta Be
TTITLE9=Montgomery Gentry - Hell Yeah
TTITLE10=Chris Cagle - Chicks Dig It
TTITLE11=LeAnn Rimes - We Can
TTITLE12=Partridge Family - Come On Get Happy
TTITLE13=Earth, Wind and Fire - Sing A Song
EXTD=
EXTT0=
EXTT1=
EXTT2=
EXTT3=
EXTT4=
EXTT5=
EXTT6=
EXTT7=
EXTT8=
EXTT9=
EXTT10=
EXTT11=
EXTT12=
EXTT13=
PLAYORDER=
